<?xml version="1.0" encoding="utf-8"?>
<!-- Generator: Adobe Illustrator 23.0.2, SVG Export Plug-In . SVG Version: 6.00 Build 0)  -->
<svg version="1.1" id="Layer_1" xmlns="http://www.w3.org/2000/svg" xmlns:xlink="http://www.w3.org/1999/xlink" x="0px" y="0px"
	 viewBox="0 0 725.3 418.8" style="enable-background:new 0 0 725.3 418.8;" xml:space="preserve">
<style type="text/css">
	.st0{display:none;fill:#224327;}
	.st1{fill:none;stroke:#333333;stroke-width:5;stroke-linecap:round;stroke-miterlimit:10;}
	.st2{fill:#FFFFFF;}
	.st3{display:none;fill:#702730;}
	.st4{fill:#FFFFFF;stroke:#333333;stroke-width:5;stroke-linecap:round;stroke-miterlimit:10;}
	.st5{fill:#FFFFFF;stroke:#000000;stroke-width:5;stroke-linecap:round;stroke-miterlimit:10;}
	.st6{fill:#FFFFFF;stroke:#000000;stroke-width:3;stroke-miterlimit:10;}
	.st7{fill:#FFFFFF;stroke:#000000;stroke-width:5;stroke-miterlimit:10;}
	.st8{fill:#333333;}
	.st9{fill:none;stroke:#333333;stroke-width:3;stroke-miterlimit:10;}
	.st10{fill:none;stroke:#333333;stroke-width:3;stroke-linecap:round;stroke-miterlimit:10;}
	.st11{fill:none;stroke:#333333;stroke-width:10;stroke-linecap:round;stroke-miterlimit:10;}
	.st12{fill:#22B573;}
	.st13{fill:none;stroke:#000000;stroke-width:3;stroke-linecap:round;stroke-miterlimit:10;}
	.st14{fill:#603813;}
	.st15{fill:#006837;}
</style>
<path class="st0" d="M326.3,25c0,0-209.9,66.8-170.7,126.8s83.3,61.5,37.6,114.6S-0.6,298.6,7.7,349.8c6.5,40.2,204.1,35.7,342,38.9
	c85,1.9,188.2-32.3,204.8-109.9c18.4-86.1-41.4-90.4-74.7-98.3c-86.6-20.5-146.2-25.8-80.9-74.4S516.6-28.9,326.3,25z"/>
<line class="st1" x1="385" y1="401.8" x2="384.1" y2="340.7"/>
<path class="st2" d="M443.4,403.8c0,0-60.9-48-61.9-66s1.9,76.5,1.9,76.5h-155l-1.9-15.5c0,0,109.6-172,120.9-174.2
	C358.8,222.5,443.4,403.8,443.4,403.8"/>
<path class="st3" d="M312-21.8c0,0-257,81.8-209,155.2s102,75.3,46,140.3S-88.2,313.2-78,376c8,49.3,249.9,43.7,418.7,47.6
	c104.1,2.4,230.4-39.6,250.7-134.5C614,183.6,540.7,178.4,500,168.7c-106-25.1-179-31.6-99-91.1S545-87.7,312-21.8z"/>
<path class="st4" d="M346.5,221.8c0,0,89,45,128,133l-31.1,49"/>
<path class="st5" d="M689.8,414.3H455.1c-0.8,0-1.3-0.7-1.2-1.4L484,223.4c0.1-0.6,0.6-1,1.2-1h233.3c0.8,0,1.3,0.7,1.2,1.4
	L691,413.3C690.9,413.9,690.4,414.3,689.8,414.3z"/>
<circle class="st6" cx="222.9" cy="100.9" r="13.9"/>
<path class="st7" d="M374.8,115.1c0-40.4-32.8-73.2-73.2-73.2s-73.2,32.8-73.2,73.2c0,29.6,17.5,55,42.8,66.6l-3.8,22.7l-18.4,10
	c3,6.7,8,15.4,13.3,20.5l0,0c0.1,0.1,0.3,0.3,0.4,0.4c9.6,8.8,22.4,14.1,36.5,14.1c8.8,0,17.1-2.1,24.4-5.8c0.7-0.4,1.4-0.7,2.1-1.1
	c0.1,0,0.2-0.1,0.2-0.1c8.7-4.9,17.2-12.6,22.1-20.9l-10.4-12.5l-2-28.9C358.9,167.7,374.8,143.2,374.8,115.1z"/>
<path class="st2" d="M369.3,51.6c-30.9,0-61.8,0-92.7,0c-13.8,0-27.5,0-41.3,0c0,21.7,0,43.5,0,65.2h134V51.6z"/>
<path class="st8" d="M302,30.8"/>
<path class="st8" d="M305,72.6c-8.1-8.9-16.7-12.8-27.5-8.9c-9.6,3.5-2.8,10-11.1,21.4C255.5,100,228,110.2,228,83V43.3
	c0-20.4,16.6-37,37.1-37h72.6c20.5,0,37.1,16.6,37.1,37v50.4c0,0-33.4,8.3-41-13.2s-18.8,3.1-28.5-7.7C305.1,72.8,305,72.7,305,72.6
	z"/>
<path class="st8" d="M289.1,104.8l-20.8,9.7c-2.1,1-4.6,0.1-5.5-2l0,0c-1-2.1-0.1-4.6,2-5.5l20.8-9.7c2.1-1,4.6-0.1,5.5,2l0,0
	C292.1,101.4,291.2,103.9,289.1,104.8z"/>
<path class="st8" d="M357.4,111l-22.8-1.9c-2.3-0.2-4-2.2-3.8-4.5l0,0c0.2-2.3,2.2-4,4.5-3.8l22.8,1.9c2.3,0.2,4,2.2,3.8,4.5l0,0
	C361.7,109.5,359.7,111.2,357.4,111z"/>
<circle class="st8" cx="286.7" cy="118.7" r="4.5"/>
<circle class="st8" cx="333.2" cy="119.4" r="4.5"/>
<path class="st9" d="M305.3,114.9c0,0,11.1,29,11.8,31.9c0.7,2.9-1.3,8-9.7,4.9c-5.5-2.1-4.2-4.9-4.2-4.9"/>
<circle class="st6" cx="383.1" cy="100.9" r="13.9"/>
<path class="st10" d="M213.9,98.1c0,0,8.3-10.9,16,0"/>
<path class="st10" d="M376.2,98.1c0,0,8.3-10.9,16,0"/>
<path class="st11" d="M321.8,59.6c0,0,10,7.9,4.4,16.9c-5.5,9-10.1,9.4-10.1,9.4"/>
<path d="M337.7,210.3"/>
<path d="M337.3,204.4"/>
<path class="st8" d="M280.7,181.1c0,0,18.4,15.6,54.3,15.6l-1-18c0,0-27,10-39.6,5.9"/>
<path class="st4" d="M346.3,221.9c-0.1,0.1-0.1,0.2-0.2,0.3c-2,3.4-4.3,6.6-6.9,9.5c-4.4,4.8-9.7,8.9-15.6,11.9
	c-7.3,3.7-15.6,5.8-24.4,5.8c-14,0-26.8-5.4-36.5-14.1c-0.1-0.1-0.3-0.3-0.4-0.4c-5.3-4.9-9.6-10.9-12.6-17.6
	c-0.1-0.3-0.3-0.6-0.4-0.9c0,0-105.4,20.7-112.6,97.6C130.5,380,225,397.5,251.6,401"/>
<path class="st10" d="M281.2,182.2c8.6,2.9,19.1,2.8,26.3,2.8c31.3,0.3,45.8-21.5,45.8-21.5"/>
<ellipse class="st10" cx="289.5" cy="163.1" rx="7" ry="3.3"/>
<path class="st12" d="M89.1,259c4.7,24.4-5.3,53-15.3,54.9c-10,2-12.9-16.8-26.7-40.6c-12.4-21.5-1.2-69,9.6-47.7
	C61.2,234.7,84.3,234.6,89.1,259z"/>
<path class="st6" d="M89.1,259c4.7,24.4-5.3,53-15.3,54.9c-10,2-12.9-16.8-26.7-40.6c-12.4-21.5-1.2-69,9.6-47.7
	C61.2,234.7,84.3,234.6,89.1,259z"/>
<path class="st13" d="M52.1,236.6c0,0,15.4,16.4,17.9,29.1c2.5,12.8-3.9,27.2,1.1,37.5c0,0,6.4,30.6,5.4,43.6s-3,17-3,17"/>
<polygon class="st14" points="103,414.3 46,414.3 31.5,354.3 116.5,354.3 "/>
<path class="st12" d="M44.8,293.8c-13.9-9.6-34.3-11.1-38.3-5.5c-3.9,5.7,6.9,12.6,18,27.7c10,13.6,42.6,19.5,32.2,7
	C52.3,317.7,58.6,303.4,44.8,293.8z"/>
<path class="st6" d="M44.8,293.8c-13.9-9.6-34.3-11.1-38.3-5.5c-3.9,5.7,6.9,12.6,18,27.7c10,13.6,42.6,19.5,32.2,7
	C52.3,317.7,58.6,303.4,44.8,293.8z"/>
<path class="st13" d="M76.4,338.2c-11-0.6-21.6-6.5-24.9-16.4c-3-9-15.6-8.4-21-13c-13.5-11.5-11-18-11-18"/>
<path class="st1" d="M265.4,365.3c0.6-3.2-1-6.4-3.9-7.9c-15.5-8-61.5-34.2-48.1-57.6"/>
<path class="st12" d="M114.6,316.9c-12.6,8-30.9,8.7-34.2,3.5c-3.3-5.2,6.6-11,16.9-23.9c9.3-11.7,38.5-15.8,28.9-5.1
	C122.1,295.9,127.2,308.9,114.6,316.9z"/>
<path class="st15" d="M182,291.3"/>
<path class="st6" d="M114.6,316.9c-12.6,8-30.9,8.7-34.2,3.5c-3.3-5.2,6.6-11,16.9-23.9c9.3-11.7,38.5-15.8,28.9-5.1
	C122.1,295.9,127.2,308.9,114.6,316.9z"/>
<path class="st13" d="M118,289.3c0,0,2.8,12.3-10.5,20.5c-13,8-30.4,10.6-31.9,20"/>
<path class="st4" d="M45.6,414.3h55.8c0.3,0,0.6-0.2,0.7-0.6l14.1-58.5c0.1-0.5-0.2-0.9-0.7-0.9H32.4c-0.5,0-0.8,0.4-0.7,0.9
	l13.2,58.5C44.9,414.1,45.2,414.3,45.6,414.3z"/>
<path class="st1" d="M383.6,334c0,0-6.5,27.2,62.1,69.4"/>
<line class="st1" x1="228.4" y1="414.3" x2="226.5" y2="398.8"/>
<path class="st5" d="M475.4,223.1l-29.3,178c-0.1,0.4-0.4,0.7-0.9,0.7H297.2c-2.9,0-5.2,2-5.2,4.4v3.8c0,2.4,2.2,4.3,5,4.3h147
	l-0.1,0.4H456c0.4,0,0.8-0.3,0.9-0.7l30.2-190.6c0.1-0.5-0.3-1-0.9-1h-9.9C475.9,222.3,475.5,222.6,475.4,223.1z"/>
<path class="st7" d="M278.4,364.8c0,0,10.6-8.3,24.7-7.8c4.5,0.1,11.5,10.9,0.2,10.2c-11.2-0.7-12.3,4.7-12.3,4.7"/>
<path class="st7" d="M235,378.6l3.5-12c2-6.8,9.1-10.6,15.8-8.6l31.8,9.3c6.8,2,9.8,20.5,7.8,27.3l-5.5,10.5
	c-3.1,7.9-11.9,2.5-18.2,0l-26.6-10.7C236.9,392.4,233,385.4,235,378.6z"/>
<path class="st7" d="M289.4,371c0,0,26.1-3.1,27,6.1c0.9,9.3-7.2,34-11.3,35.5s-29.5-5.2-29.5-5.2"/>
<path class="st13" d="M312.1,380.8c0,0-10.6,8.6-18.4,4.5s-8.3-2.4-8.3-2.4"/>
<path class="st13" d="M307.7,393c0,0-9.6,5.3-12.9,4.3s-11.2-7.8-13.5-3"/>
</svg>
