<?xml version="1.0" encoding="utf-8"?>
<!-- Generator: Adobe Illustrator 23.0.2, SVG Export Plug-In . SVG Version: 6.00 Build 0)  -->
<svg version="1.1" id="Layer_1" xmlns="http://www.w3.org/2000/svg" xmlns:xlink="http://www.w3.org/1999/xlink" x="0px" y="0px"
	 viewBox="0 0 611 695" style="enable-background:new 0 0 611 695;" xml:space="preserve">
<style type="text/css">
	.st0{fill:#FFFFFF;stroke:#000000;stroke-width:5;stroke-miterlimit:10;}
	.st1{fill:#FFFFFF;stroke:#333333;stroke-width:5;stroke-linecap:round;stroke-miterlimit:10;}
	.st2{fill:#FFFFFF;stroke:#000000;stroke-width:5;stroke-linecap:round;stroke-miterlimit:10;}
	.st3{fill:#333333;}
	.st4{fill:#FFFFFF;}
	.st5{fill:none;stroke:#333333;stroke-width:3;stroke-miterlimit:10;}
	.st6{fill:none;stroke:#333333;stroke-width:3;stroke-linecap:round;stroke-miterlimit:10;}
	.st7{fill:none;stroke:#333333;stroke-width:14;stroke-linecap:round;stroke-miterlimit:10;}
	.st8{fill:#4D4D4D;}
	.st9{fill:#666666;}
	.st10{fill:none;stroke:#FFFFFF;stroke-width:6;stroke-linecap:round;stroke-miterlimit:10;}
	.st11{fill:none;stroke:#333333;stroke-width:5;stroke-linecap:round;stroke-miterlimit:10;}
	.st12{fill:none;stroke:#333333;stroke-width:5;stroke-linecap:round;stroke-linejoin:bevel;stroke-miterlimit:10;}
	.st13{fill:none;stroke:#000000;stroke-width:5;stroke-miterlimit:10;}
	.st14{fill:none;stroke:#808080;stroke-width:3;stroke-linecap:round;stroke-miterlimit:10;}
	.st15{fill:none;}
	.st16{font-family:'BerlinSansFBDemi-Bold';}
	.st17{font-size:115px;}
	.st18{fill:none;stroke:#333333;stroke-width:5;stroke-miterlimit:10;}
</style>
<path class="st0" d="M395.5,488.74L487.06,331L542,353.12c0,0-74.21,206.8-127.22,217.38"/>
<path class="st1" d="M381.92,462.83"/>
<path class="st1" d="M491.5,321.5"/>
<path class="st1" d="M419.5,584.5"/>
<path class="st1" d="M550.5,337.5"/>
<path class="st2" d="M281.5,397.5C345.6,413.9,391.52,443.49,410,541c29,153,29,153,29,153c-35.13,0.19,53.38,1.15-374.5,0.5
	c0,0-31.73-276.31,76.65-305.09"/>
<path class="st3" d="M217,122"/>
<g>
	<circle class="st4" cx="216.5" cy="243.5" r="103"/>
	<path d="M216.5,143c55.42,0,100.5,45.08,100.5,100.5S271.92,344,216.5,344S116,298.92,116,243.5S161.08,143,216.5,143 M216.5,138
		C158.23,138,111,185.23,111,243.5S158.23,349,216.5,349S322,301.77,322,243.5S274.77,138,216.5,138L216.5,138z"/>
</g>
<path class="st3" d="M184.03,221.06l-31.64,9.39c-3.18,0.94-6.52-0.87-7.46-4.05v0c-0.94-3.18,0.87-6.52,4.05-7.46l31.64-9.39
	c3.18-0.94,6.52,0.87,7.46,4.05v0C189.01,216.78,187.2,220.12,184.03,221.06z"/>
<path class="st3" d="M268,232.22l-31.06-11.15c-3.12-1.12-4.74-4.56-3.62-7.67l0,0c1.12-3.12,4.56-4.74,7.67-3.62l31.06,11.15
	c3.12,1.12,4.74,4.56,3.62,7.67v0C274.56,231.72,271.12,233.34,268,232.22z"/>
<circle class="st3" cx="180.5" cy="238.5" r="6.5"/>
<circle class="st3" cx="264.5" cy="240.5" r="6.5"/>
<path class="st5" d="M209.54,223.5c0,0,16,41.79,17,46s-1.81,11.57-14,7c-8-3-6-7-6-7"/>
<path class="st0" d="M531.14,348.86l-32.29-14.59c-6.42-2.9-9.27-10.45-6.37-16.87l28.28-62.58c2.9-6.42,10.45-9.27,16.87-6.37
	l32.29,14.59c6.42,2.9,9.27,10.45,6.37,16.87l-28.28,62.58C545.11,348.91,537.56,351.76,531.14,348.86z"/>
<path class="st6" d="M207.5,297.5c0,0,1.03-3.85,14.7-8.87s28.78-4.12,28.78-4.12"/>
<path class="st2" d="M313.54,210.2c4.11-4.42,9.95-7.2,16.46-7.2c12.43,0,22.5,10.07,22.5,22.5c0,12.43-10.07,22.5-22.5,22.5
	c-3.66,0-7.11-0.89-10.16-2.45C319.53,233.21,317.34,221.33,313.54,210.2z"/>
<path class="st2" d="M119.5,209.2c-4.11-4.42-9.95-7.2-16.47-7.2c-12.43,0-22.5,10.07-22.5,22.5c0,12.43,10.07,22.5,22.5,22.5
	c3.66,0,7.11-0.89,10.16-2.45C113.51,232.21,115.7,220.33,119.5,209.2z"/>
<path class="st3" d="M221.58,176.51c-11.64-12.78-23.98-18.45-39.58-12.78c-13.85,5.04-4,14.34-16,30.89
	c-15.52,21.4-55,36.1-55-3.11v-57.18C111,104.88,134.88,81,164.33,81h104.33c29.46,0,53.33,23.88,53.33,53.33V207
	c0,0-48,11.89-59-19s-27,4.41-41-11.03C221.86,176.82,221.72,176.66,221.58,176.51z"/>
<path class="st6" d="M89,219c0,0,11.99-15.75,22.99,0"/>
<path class="st6" d="M322.5,221.5c0,0,11.99-15.75,22.99,0"/>
<path class="st7" d="M245.63,163.6c0,0,14.37,11.4,6.37,24.4s-14.5,13.5-14.5,13.5"/>
<path d="M268.52,380.7"/>
<path class="st8" d="M576.6,288.44l-127.64-7.21c-15.13,0-27.4-12.27-27.4-27.4v0c0-15.13,12.27-27.4,27.4-27.4l127.64-7.21V288.44z
	"/>
<polygon class="st9" points="553.04,238.93 528.85,232.5 530.09,221.92 554.28,228.35 "/>
<polygon class="st8" points="481.46,233.41 529.21,233.41 529.21,213.12 380,226.25 "/>
<polygon class="st9" points="528.92,232.5 504.73,238.93 503.49,228.35 527.68,221.92 "/>
<path class="st8" d="M485.5,288.32l-106.51-7.21c-12.63,0-22.87-12.27-22.87-27.4v0c0-15.13,10.24-27.4,22.87-27.4l106.51-7.21
	V288.32z"/>
<circle class="st9" cx="485.23" cy="253.65" r="34.68"/>
<circle class="st3" cx="485.59" cy="253.28" r="24.09"/>
<path class="st10" d="M470.26,251.82c0,0,0-16.79,18.98-14.6"/>
<circle class="st9" cx="528.61" cy="223.26" r="10.15"/>
<circle class="st9" cx="576.32" cy="253.76" r="34.68"/>
<circle class="st3" cx="576.69" cy="253.4" r="24.09"/>
<path class="st10" d="M561.36,251.94c0,0,0-16.79,18.98-14.6"/>
<path d="M267.93,372.22"/>
<path class="st0" d="M166.5,332.5l0.67,38.68l-25.44,18.56c4.29,9.63,10.5,18.22,18.11,25.32l0,0c0.2,0.21,0.41,0.39,0.61,0.58
	C174.31,428.29,192.76,436,213,436c12.66,0,24.62-3.01,35.19-8.37c0.98-0.5,1.94-1.02,2.89-1.55c0.28-0.15,0.55-0.32,0.82-0.47
	c0.69-0.4,1.37-0.8,2.05-1.22c0.29-0.18,0.58-0.36,0.87-0.54c0.69-0.44,1.38-0.9,2.06-1.36c0.23-0.16,0.46-0.31,0.68-0.46
	c1.8-1.26,3.55-2.59,5.24-3.99c0.23-0.19,0.45-0.38,0.67-0.57c0.61-0.52,1.21-1.04,1.8-1.58c0.26-0.24,0.53-0.48,0.79-0.72
	c0.56-0.52,1.12-1.05,1.66-1.59c0.24-0.24,0.48-0.47,0.72-0.71c0.73-0.73,1.44-1.48,2.14-2.24c0.03-0.04,0.07-0.07,0.1-0.11l0,0
	c3.79-4.16,7.14-8.74,9.96-13.66l-12.21-18.47l0.07-47.88"/>
<path class="st6" d="M185.5,341.5c12.38,4.13,29.58,4.92,40,5c45.15,0.36,66-31,66-31"/>
<path class="st11" d="M280.88,397.45"/>
<path class="st11" d="M159.84,416.06"/>
<path class="st12" d="M156.5,444.5"/>
<path class="st13" d="M151.5,449.5c8.65-1.44,34,42,67.03,48.15c15.52,2.89,31.22,2.77,39.36-10.75l99.6-165.4l57,23
	c0,0-76.5,292.19-172,291s-119-93-119-93"/>
<path class="st3" d="M189.21,341.05c0,0,26.51,23.2,78.15,23.07l-1.84-26.26c0,0-38.52,14.13-56.52,8.13"/>
<path class="st0" d="M452.01,249c-2.39-4.8-34.86-20.4-48.87-23.01c-9.39-1.75-10.07,10.44-9.51,18.68
	c-0.66,0.82-1.23,1.72-1.69,2.72l-1.33,2.94c-1.43-2.83-2.56-7.08-2.61-13.45c-0.15-18.06-16.59-5.62-16.3,1.56
	c0.54,13.47,5.86,24.58,10.1,31.39l-18.14,40.14c-2.9,6.42-0.05,13.97,6.37,16.87l32.29,14.59c6.42,2.9,13.97,0.05,16.87-6.37
	l28.28-62.58c0.77-1.69,1.12-3.47,1.12-5.21C450.98,260.18,453.34,251.66,452.01,249z"/>
<path class="st14" d="M402.86,243.83c0,0,13.27,14.36,7.25,20.94c-6.01,6.58-3.49,7.72-3.49,7.72"/>
<path class="st14" d="M421.45,253.16c0,0,8.22,12.08,6.82,15.17c-1.4,3.09-11.54,8.73-4.32,12.92"/>
<rect x="6.67" y="5.22" class="st15" width="59.33" height="84.78"/>
<text transform="matrix(1 0 0 1 6.667 86.2954)" class="st8 st16 st17">?</text>
<rect x="411.67" y="100.22" class="st15" width="59.33" height="84.78"/>
<text transform="matrix(1 0 0 1 411.667 181.2954)" class="st8 st16 st17">?</text>
<rect x="21.67" y="330.22" class="st15" width="59.33" height="84.78"/>
<text transform="matrix(1 0 0 1 21.667 411.2954)" class="st8 st16 st17">?</text>
<path class="st18" d="M-727.5,90.5c0,0-77,215-132,226c0,0-58-20-83-60c-24.04-38.46-58-144-58-144"/>
<path class="st11" d="M-955.5,49.5c0,0,102,103,81,149l90-131"/>
<path class="st11" d="M-874.5,198.5c0,0-12,33-9,54"/>
<path class="st2" d="M268.5,469.5l89-147l57,23c0,0-45.48,173.72-110.09,252.71"/>
</svg>
