<?xml version="1.0" encoding="utf-8"?>
<!-- Generator: Adobe Illustrator 23.0.2, SVG Export Plug-In . SVG Version: 6.00 Build 0)  -->
<svg version="1.1" id="Layer_1" xmlns="http://www.w3.org/2000/svg" xmlns:xlink="http://www.w3.org/1999/xlink" x="0px" y="0px"
	 viewBox="0 0 119 113" style="enable-background:new 0 0 119 113;" xml:space="preserve">
<style type="text/css">
	.st0{fill:#B2B2B2;}
	.st1{fill:#B2B2B2;stroke:#FFFFFF;stroke-width:12;stroke-linecap:round;stroke-miterlimit:10;}
</style>
<g>
	<g>
		<path class="st0" d="M118,56.5c0,5.8-10.7,9.8-12.4,15c-1.8,5.4,4.5,14.9,1.2,19.4c-3.3,4.5-14.3,1.6-18.8,4.8
			c-4.5,3.3-5,14.7-10.4,16.4c-5.2,1.7-12.3-7.1-18.1-7.1s-12.9,8.8-18.1,7.2C36,110.4,35.5,99,31,95.7c-4.5-3.3-15.5-0.3-18.8-4.8
			c-3.3-4.5,2.9-14,1.2-19.4C11.7,66.3,1,62.3,1,56.5s10.7-9.8,12.4-15c1.8-5.4-4.5-14.9-1.2-19.4c3.3-4.5,14.3-1.5,18.8-4.9
			C35.5,14,36,2.6,41.4,0.9C46.6-0.8,53.7,8,59.5,8s12.9-8.8,18.1-7.2C83,2.6,83.5,14,88,17.3c4.5,3.3,15.5,0.3,18.8,4.9
			c3.3,4.5-2.9,14-1.2,19.4C107.3,46.7,118,50.7,118,56.5z"/>
	</g>
	<path class="st1" d="M33.1,56.8l13,14.1c1.9,2.1,5.1,2.2,7.1,0.2l33.3-31.5"/>
</g>
</svg>
