<?xml version="1.0" encoding="utf-8"?>
<!-- Generator: Adobe Illustrator 23.0.2, SVG Export Plug-In . SVG Version: 6.00 Build 0)  -->
<svg version="1.1" id="Layer_1" xmlns="http://www.w3.org/2000/svg" xmlns:xlink="http://www.w3.org/1999/xlink" x="0px" y="0px"
	 viewBox="0 0 119 113" style="enable-background:new 0 0 119 113;" xml:space="preserve">
<style type="text/css">
	.st0{fill:#29ABE2;}
	.st1{fill:none;stroke:#FFFFFF;stroke-width:12;stroke-linecap:round;stroke-miterlimit:10;}
</style>
<g>
	<g>
		<path class="st0" d="M118,56.5c0,5.77-10.67,9.79-12.36,14.99c-1.75,5.4,4.46,14.9,1.19,19.4c-3.3,4.54-14.29,1.55-18.82,4.85
			c-4.49,3.27-5.03,14.65-10.42,16.41C72.37,113.84,65.27,105,59.5,105c-5.77,0-12.87,8.84-18.08,7.15
			c-5.4-1.75-5.93-13.14-10.42-16.41c-4.54-3.3-15.52-0.32-18.82-4.85c-3.27-4.49,2.94-14,1.19-19.4C11.67,66.29,1,62.27,1,56.5
			c0-5.77,10.67-9.79,12.36-14.99c1.75-5.4-4.46-14.9-1.19-19.4c3.3-4.54,14.29-1.55,18.82-4.85c4.49-3.27,5.03-14.65,10.42-16.41
			C46.63-0.84,53.73,8,59.5,8c5.77,0,12.87-8.84,18.08-7.15c5.4,1.75,5.93,13.14,10.42,16.41c4.54,3.3,15.52,0.32,18.82,4.85
			c3.27,4.49-2.94,14-1.19,19.4C107.33,46.71,118,50.73,118,56.5z"/>
	</g>
	<path class="st1" d="M33.12,56.81l13.02,14.1c1.89,2.05,5.1,2.16,7.13,0.24l33.35-31.5"/>
</g>
</svg>
